<?xml version="1.0" standalone="no"?>
<!DOCTYPE svg PUBLIC "-//W3C//DTD SVG 20010904//EN"
 "http://www.w3.org/TR/2001/REC-SVG-20010904/DTD/svg10.dtd">
<svg version="1.0" xmlns="http://www.w3.org/2000/svg"
 width="256.000000pt" height="256.000000pt" viewBox="0 0 256.000000 256.000000"
 preserveAspectRatio="xMidYMid meet">
<metadata>
Created by potrace 1.11, written by Peter Selinger 2001-2013
</metadata>
<g transform="translate(0.000000,256.000000) scale(0.100000,-0.100000)"
fill="#000000" stroke="none">
<path d="M750 2540 c-159 -34 -261 -81 -366 -167 -97 -78 -182 -183 -221 -271
-19 -46 -2 -71 65 -95 64 -22 138 -72 175 -119 24 -29 30 -47 29 -80 -1 -55
-13 -84 -134 -310 -144 -269 -189 -392 -208 -568 -18 -161 9 -319 80 -468 87
-182 216 -319 378 -401 120 -61 125 -61 707 -61 400 0 534 3 543 12 32 32 -1
169 -55 229 -44 49 -107 69 -215 69 l-78 0 18 38 c19 36 55 143 66 192 5 23
14 27 91 43 161 33 295 97 416 198 39 32 82 62 95 65 13 3 45 0 72 -6 82 -22
224 13 256 62 15 23 15 29 -4 83 -28 82 -66 142 -100 160 l-29 15 51 51 c48
48 50 52 44 92 -4 23 -30 89 -58 146 -89 181 -245 314 -412 352 -50 11 -56 16
-70 49 -8 20 -30 57 -50 83 -28 37 -36 56 -36 90 0 45 -13 67 -40 67 -30 0
-50 -34 -50 -82 0 -48 -45 -164 -54 -137 -2 7 -12 45 -21 83 -26 113 -71 217
-135 314 -95 144 -209 230 -360 271 -97 27 -268 28 -390 1z m359 -85 c94 -25
163 -65 237 -139 58 -58 80 -90 122 -176 56 -114 97 -244 108 -338 l6 -60 -73
-42 c-99 -57 -163 -104 -231 -168 l-57 -54 -51 11 c-252 54 -530 -87 -647
-329 -52 -107 -73 -202 -73 -329 0 -168 50 -372 96 -393 20 -9 28 -8 41 5 18
18 14 49 -23 177 -9 30 -18 109 -21 175 -6 139 8 218 59 324 38 80 149 196
224 234 127 64 266 72 403 24 55 -19 79 -23 93 -16 22 12 24 52 4 69 -13 10
-7 19 34 55 57 51 147 113 207 144 52 26 51 26 55 0 2 -12 12 -28 23 -35 31
-21 65 6 65 51 0 48 19 131 42 185 l20 45 19 -35 c10 -19 30 -72 44 -117 22
-69 30 -84 51 -89 32 -8 54 11 54 47 0 38 12 37 97 -6 115 -57 221 -180 279
-323 26 -65 21 -81 -30 -106 -43 -20 -84 -20 -158 0 -47 13 -61 14 -73 4 -25
-21 -18 -58 15 -79 l31 -18 -28 -11 c-69 -26 -109 -33 -234 -42 -109 -7 -136
-12 -146 -26 -19 -26 -16 -42 11 -60 38 -24 257 -3 381 36 95 31 173 38 220
20 18 -7 34 -27 51 -65 13 -31 24 -57 24 -60 0 -2 -25 -9 -56 -15 -41 -9 -68
-9 -99 -1 -95 24 -135 11 -236 -74 -98 -84 -276 -167 -401 -189 -42 -8 -41 -8
-52 86 -12 105 -90 209 -195 263 -94 47 -279 73 -309 43 -38 -38 4 -73 98 -81
130 -12 225 -59 277 -136 69 -102 59 -290 -24 -459 l-35 -72 -44 0 c-35 0 -47
-5 -59 -24 -13 -19 -14 -29 -5 -45 10 -20 19 -21 186 -21 183 0 221 -7 256
-47 10 -11 21 -34 24 -51 l7 -32 -491 0 c-459 0 -494 1 -553 20 -126 38 -250
134 -345 266 -99 138 -146 286 -145 464 0 195 46 333 220 655 101 186 123 244
124 316 1 98 -64 180 -198 251 l-64 33 31 49 c63 102 198 211 328 266 130 54
371 77 489 45z"/>
<path d="M2040 1490 c-41 -41 -10 -110 48 -110 36 0 62 28 62 67 0 57 -69 84
-110 43z"/>
</g>
</svg>
